<svg id="visual" viewBox="0 0 1500 1600" width="1500" height="1600" xmlns="http://www.w3.org/2000/svg" xmlns:xlink="http://www.w3.org/1999/xlink" version="1.1"><path d="M1130 1600L1140.3 1566.7C1150.7 1533.3 1171.3 1466.7 1178.7 1400C1186 1333.3 1180 1266.7 1168.3 1200C1156.7 1133.3 1139.3 1066.7 1128.3 1000C1117.3 933.3 1112.7 866.7 1117 800C1121.3 733.3 1134.7 666.7 1138.8 600C1143 533.3 1138 466.7 1140 400C1142 333.3 1151 266.7 1152.2 200C1153.3 133.3 1146.7 66.7 1143.3 33.3L1140 0L1500 0L1500 33.3C1500 66.7 1500 133.3 1500 200C1500 266.7 1500 333.3 1500 400C1500 466.7 1500 533.3 1500 600C1500 666.7 1500 733.3 1500 800C1500 866.7 1500 933.3 1500 1000C1500 1066.7 1500 1133.3 1500 1200C1500 1266.7 1500 1333.3 1500 1400C1500 1466.7 1500 1533.3 1500 1566.7L1500 1600Z" fill="#80a5a6"></path><path d="M1238 1600L1237.8 1566.7C1237.7 1533.3 1237.3 1466.7 1233.7 1400C1230 1333.3 1223 1266.7 1220 1200C1217 1133.3 1218 1066.7 1209.2 1000C1200.3 933.3 1181.7 866.7 1176.8 800C1172 733.3 1181 666.7 1183.8 600C1186.7 533.3 1183.3 466.7 1193 400C1202.7 333.3 1225.3 266.7 1225 200C1224.7 133.3 1201.3 66.7 1189.7 33.3L1178 0L1500 0L1500 33.3C1500 66.7 1500 133.3 1500 200C1500 266.7 1500 333.3 1500 400C1500 466.7 1500 533.3 1500 600C1500 666.7 1500 733.3 1500 800C1500 866.7 1500 933.3 1500 1000C1500 1066.7 1500 1133.3 1500 1200C1500 1266.7 1500 1333.3 1500 1400C1500 1466.7 1500 1533.3 1500 1566.7L1500 1600Z" fill="#6e9899"></path><path d="M1246 1600L1255.2 1566.7C1264.3 1533.3 1282.7 1466.7 1283 1400C1283.3 1333.3 1265.7 1266.7 1265.8 1200C1266 1133.3 1284 1066.7 1283.3 1000C1282.7 933.3 1263.3 866.7 1251.5 800C1239.7 733.3 1235.3 666.7 1241.3 600C1247.3 533.3 1263.7 466.7 1270.3 400C1277 333.3 1274 266.7 1271.3 200C1268.7 133.3 1266.3 66.7 1265.2 33.3L1264 0L1500 0L1500 33.3C1500 66.7 1500 133.3 1500 200C1500 266.7 1500 333.3 1500 400C1500 466.7 1500 533.3 1500 600C1500 666.7 1500 733.3 1500 800C1500 866.7 1500 933.3 1500 1000C1500 1066.7 1500 1133.3 1500 1200C1500 1266.7 1500 1333.3 1500 1400C1500 1466.7 1500 1533.3 1500 1566.7L1500 1600Z" fill="#5d8c8d"></path><path d="M1330 1600L1331 1566.7C1332 1533.3 1334 1466.7 1333.2 1400C1332.3 1333.3 1328.7 1266.7 1321.3 1200C1314 1133.3 1303 1066.7 1298.3 1000C1293.7 933.3 1295.3 866.7 1300.5 800C1305.7 733.3 1314.3 666.7 1315.7 600C1317 533.3 1311 466.7 1313.5 400C1316 333.3 1327 266.7 1328 200C1329 133.3 1320 66.7 1315.5 33.3L1311 0L1500 0L1500 33.3C1500 66.7 1500 133.3 1500 200C1500 266.7 1500 333.3 1500 400C1500 466.7 1500 533.3 1500 600C1500 666.7 1500 733.3 1500 800C1500 866.7 1500 933.3 1500 1000C1500 1066.7 1500 1133.3 1500 1200C1500 1266.7 1500 1333.3 1500 1400C1500 1466.7 1500 1533.3 1500 1566.7L1500 1600Z" fill="#507f80"></path><path d="M1353 1600L1355.3 1566.7C1357.7 1533.3 1362.3 1466.7 1370.3 1400C1378.3 1333.3 1389.7 1266.7 1386 1200C1382.3 1133.3 1363.7 1066.7 1364.5 1000C1365.3 933.3 1385.7 866.7 1396.7 800C1407.7 733.3 1409.3 666.7 1406 600C1402.7 533.3 1394.3 466.7 1393 400C1391.7 333.3 1397.3 266.7 1393.5 200C1389.7 133.3 1376.3 66.7 1369.7 33.3L1363 0L1500 0L1500 33.3C1500 66.7 1500 133.3 1500 200C1500 266.7 1500 333.3 1500 400C1500 466.7 1500 533.3 1500 600C1500 666.7 1500 733.3 1500 800C1500 866.7 1500 933.3 1500 1000C1500 1066.7 1500 1133.3 1500 1200C1500 1266.7 1500 1333.3 1500 1400C1500 1466.7 1500 1533.3 1500 1566.7L1500 1600Z" fill="#477071"></path><path d="M1426 1600L1432.7 1566.7C1439.3 1533.3 1452.7 1466.7 1450.8 1400C1449 1333.3 1432 1266.7 1430 1200C1428 1133.3 1441 1066.7 1443.7 1000C1446.3 933.3 1438.7 866.7 1432.3 800C1426 733.3 1421 666.7 1422 600C1423 533.3 1430 466.7 1431.8 400C1433.7 333.3 1430.3 266.7 1425.5 200C1420.7 133.3 1414.3 66.7 1411.2 33.3L1408 0L1500 0L1500 33.3C1500 66.7 1500 133.3 1500 200C1500 266.7 1500 333.3 1500 400C1500 466.7 1500 533.3 1500 600C1500 666.7 1500 733.3 1500 800C1500 866.7 1500 933.3 1500 1000C1500 1066.7 1500 1133.3 1500 1200C1500 1266.7 1500 1333.3 1500 1400C1500 1466.7 1500 1533.3 1500 1566.7L1500 1600Z" fill="#3e6263"></path></svg>