<svg id="visual" viewBox="0 0 1500 600" width="1500" height="600" xmlns="http://www.w3.org/2000/svg" xmlns:xlink="http://www.w3.org/1999/xlink" version="1.1"><rect x="0" y="0" width="1500" height="600" fill="#433E3F"></rect><path d="M0 395L31.3 384C62.7 373 125.3 351 187.8 343.2C250.3 335.3 312.7 341.7 375.2 354C437.7 366.3 500.3 384.7 562.8 396.3C625.3 408 687.7 413 750.2 408.5C812.7 404 875.3 390 937.8 385.5C1000.3 381 1062.7 386 1125.2 383.8C1187.7 381.7 1250.3 372.3 1312.8 371.2C1375.3 370 1437.7 377 1468.8 380.5L1500 384L1500 0L1468.8 0C1437.7 0 1375.3 0 1312.8 0C1250.3 0 1187.7 0 1125.2 0C1062.7 0 1000.3 0 937.8 0C875.3 0 812.7 0 750.2 0C687.7 0 625.3 0 562.8 0C500.3 0 437.7 0 375.2 0C312.7 0 250.3 0 187.8 0C125.3 0 62.7 0 31.3 0L0 0Z" fill="#80a5a6"></path><path d="M0 279L31.3 279.2C62.7 279.3 125.3 279.7 187.8 283.7C250.3 287.7 312.7 295.3 375.2 298.5C437.7 301.7 500.3 300.3 562.8 309.7C625.3 319 687.7 339 750.2 344.3C812.7 349.7 875.3 340.3 937.8 337.3C1000.3 334.3 1062.7 337.7 1125.2 327.3C1187.7 317 1250.3 293 1312.8 293.3C1375.3 293.7 1437.7 318.3 1468.8 330.7L1500 343L1500 0L1468.8 0C1437.7 0 1375.3 0 1312.8 0C1250.3 0 1187.7 0 1125.2 0C1062.7 0 1000.3 0 937.8 0C875.3 0 812.7 0 750.2 0C687.7 0 625.3 0 562.8 0C500.3 0 437.7 0 375.2 0C312.7 0 250.3 0 187.8 0C125.3 0 62.7 0 31.3 0L0 0Z" fill="#6e9899"></path><path d="M0 271L31.3 261.3C62.7 251.7 125.3 232.3 187.8 232C250.3 231.7 312.7 250.3 375.2 250.2C437.7 250 500.3 231 562.8 231.7C625.3 232.3 687.7 252.7 750.2 265.2C812.7 277.7 875.3 282.3 937.8 276C1000.3 269.7 1062.7 252.3 1125.2 245.2C1187.7 238 1250.3 241 1312.8 243.7C1375.3 246.3 1437.7 248.7 1468.8 249.8L1500 251L1500 0L1468.8 0C1437.7 0 1375.3 0 1312.8 0C1250.3 0 1187.7 0 1125.2 0C1062.7 0 1000.3 0 937.8 0C875.3 0 812.7 0 750.2 0C687.7 0 625.3 0 562.8 0C500.3 0 437.7 0 375.2 0C312.7 0 250.3 0 187.8 0C125.3 0 62.7 0 31.3 0L0 0Z" fill="#5d8c8d"></path><path d="M0 181L31.3 180C62.7 179 125.3 177 187.8 178C250.3 179 312.7 183 375.2 190.8C437.7 198.7 500.3 210.3 562.8 215.3C625.3 220.3 687.7 218.7 750.2 213C812.7 207.3 875.3 197.7 937.8 196.2C1000.3 194.7 1062.7 201.3 1125.2 198.7C1187.7 196 1250.3 184 1312.8 183C1375.3 182 1437.7 192 1468.8 197L1500 202L1500 0L1468.8 0C1437.7 0 1375.3 0 1312.8 0C1250.3 0 1187.7 0 1125.2 0C1062.7 0 1000.3 0 937.8 0C875.3 0 812.7 0 750.2 0C687.7 0 625.3 0 562.8 0C500.3 0 437.7 0 375.2 0C312.7 0 250.3 0 187.8 0C125.3 0 62.7 0 31.3 0L0 0Z" fill="#507f80"></path><path d="M0 157L31.3 154.5C62.7 152 125.3 147 187.8 138.5C250.3 130 312.7 118 375.2 121.8C437.7 125.7 500.3 145.3 562.8 144.3C625.3 143.3 687.7 121.7 750.2 110C812.7 98.3 875.3 96.7 937.8 100.2C1000.3 103.7 1062.7 112.3 1125.2 113.7C1187.7 115 1250.3 109 1312.8 113.2C1375.3 117.3 1437.7 131.7 1468.8 138.8L1500 146L1500 0L1468.8 0C1437.7 0 1375.3 0 1312.8 0C1250.3 0 1187.7 0 1125.2 0C1062.7 0 1000.3 0 937.8 0C875.3 0 812.7 0 750.2 0C687.7 0 625.3 0 562.8 0C500.3 0 437.7 0 375.2 0C312.7 0 250.3 0 187.8 0C125.3 0 62.7 0 31.3 0L0 0Z" fill="#477071"></path><path d="M0 79L31.3 72C62.7 65 125.3 51 187.8 52.8C250.3 54.7 312.7 72.3 375.2 74.3C437.7 76.3 500.3 62.7 562.8 60C625.3 57.3 687.7 65.7 750.2 72.3C812.7 79 875.3 84 937.8 82.8C1000.3 81.7 1062.7 74.3 1125.2 72.5C1187.7 70.7 1250.3 74.3 1312.8 79.5C1375.3 84.7 1437.7 91.3 1468.8 94.7L1500 98L1500 0L1468.8 0C1437.7 0 1375.3 0 1312.8 0C1250.3 0 1187.7 0 1125.2 0C1062.7 0 1000.3 0 937.8 0C875.3 0 812.7 0 750.2 0C687.7 0 625.3 0 562.8 0C500.3 0 437.7 0 375.2 0C312.7 0 250.3 0 187.8 0C125.3 0 62.7 0 31.3 0L0 0Z" fill="#3e6263"></path></svg>